<svg xmlns="http://www.w3.org/2000/svg" viewBox="0 0 120 120" fill="none" aria-hidden="true">
  <path fill="#F4F5F7" d="M60 8c2 14 8 24 18 34-10 2-16 8-18 18-2-10-8-16-18-18 10-10 16-20 18-34Z"/>
  <path fill="#F4F5F7" d="M22 48c18 4 28 14 34 28-12-2-24 2-34 14 2-16 6-30 0-42Z"/>
  <path fill="#F4F5F7" d="M98 48c-18 4-28 14-34 28 12-2 24 2 34 14-2-16-6-30 0-42Z"/>
  <path fill="#2F5BFF" d="M60 52c6 10 8 20 6 36h-12c-2-16 0-26 6-36Z"/>
  <path fill="#F4F5F7" d="M48 92h24l-4 16H52l-4-16Z"/>
</svg>
